<svg xmlns="http://www.w3.org/2000/svg" xmlns:xlink="http://www.w3.org/1999/xlink" width="500" zoomAndPan="magnify" viewBox="0 0 375 374.999991" height="500" preserveAspectRatio="xMidYMid meet" version="1.0"><path fill="#ffffff" d="M 187.5 0 C 184.429688 0 181.363281 0.0742188 178.300781 0.226562 C 175.234375 0.375 172.175781 0.601562 169.121094 0.902344 C 166.066406 1.203125 163.023438 1.578125 159.988281 2.03125 C 156.953125 2.480469 153.929688 3.003906 150.921875 3.601562 C 147.910156 4.203125 144.917969 4.875 141.941406 5.617188 C 138.964844 6.363281 136.007812 7.183594 133.070312 8.074219 C 130.136719 8.964844 127.222656 9.925781 124.332031 10.960938 C 121.445312 11.996094 118.582031 13.097656 115.746094 14.273438 C 112.910156 15.445312 110.105469 16.691406 107.332031 18.003906 C 104.558594 19.3125 101.820312 20.691406 99.113281 22.140625 C 96.40625 23.585938 93.738281 25.097656 91.105469 26.675781 C 88.472656 28.253906 85.882812 29.894531 83.332031 31.597656 C 80.777344 33.304688 78.269531 35.070312 75.804688 36.898438 C 73.339844 38.726562 70.921875 40.613281 68.550781 42.558594 C 66.179688 44.507812 63.855469 46.511719 61.582031 48.570312 C 59.308594 50.632812 57.085938 52.746094 54.917969 54.917969 C 52.746094 57.085938 50.632812 59.308594 48.570312 61.582031 C 46.511719 63.855469 44.507812 66.179688 42.558594 68.550781 C 40.613281 70.921875 38.726562 73.339844 36.898438 75.804688 C 35.070312 78.269531 33.304688 80.777344 31.597656 83.332031 C 29.894531 85.882812 28.253906 88.472656 26.675781 91.105469 C 25.097656 93.738281 23.585938 96.40625 22.140625 99.113281 C 20.691406 101.820312 19.3125 104.558594 18.003906 107.332031 C 16.691406 110.105469 15.445312 112.910156 14.273438 115.746094 C 13.097656 118.582031 11.996094 121.445312 10.960938 124.332031 C 9.925781 127.222656 8.964844 130.136719 8.074219 133.070312 C 7.183594 136.007812 6.363281 138.964844 5.621094 141.941406 C 4.875 144.917969 4.203125 147.910156 3.601562 150.921875 C 3.003906 153.929688 2.480469 156.953125 2.03125 159.988281 C 1.578125 163.023438 1.203125 166.066406 0.902344 169.121094 C 0.601562 172.175781 0.375 175.234375 0.226562 178.300781 C 0.0742188 181.363281 0 184.429688 0 187.5 C 0 190.570312 0.0742188 193.636719 0.226562 196.699219 C 0.375 199.765625 0.601562 202.824219 0.902344 205.878906 C 1.203125 208.933594 1.578125 211.976562 2.03125 215.011719 C 2.480469 218.046875 3.003906 221.070312 3.601562 224.078125 C 4.203125 227.089844 4.875 230.082031 5.621094 233.058594 C 6.363281 236.035156 7.183594 238.992188 8.074219 241.929688 C 8.964844 244.863281 9.925781 247.777344 10.960938 250.667969 C 11.996094 253.554688 13.097656 256.417969 14.273438 259.253906 C 15.445312 262.089844 16.691406 264.894531 18.003906 267.667969 C 19.3125 270.441406 20.691406 273.179688 22.140625 275.886719 C 23.585938 278.59375 25.097656 281.261719 26.675781 283.894531 C 28.253906 286.527344 29.894531 289.117188 31.597656 291.667969 C 33.304688 294.222656 35.070312 296.730469 36.898438 299.195312 C 38.726562 301.660156 40.613281 304.078125 42.558594 306.449219 C 44.507812 308.820312 46.511719 311.144531 48.570312 313.417969 C 50.632812 315.691406 52.746094 317.914062 54.917969 320.082031 C 57.085938 322.253906 59.308594 324.367188 61.582031 326.429688 C 63.855469 328.488281 66.179688 330.492188 68.550781 332.441406 C 70.921875 334.386719 73.339844 336.273438 75.804688 338.101562 C 78.269531 339.929688 80.777344 341.695312 83.332031 343.402344 C 85.882812 345.105469 88.472656 346.746094 91.105469 348.324219 C 93.738281 349.902344 96.40625 351.414062 99.113281 352.859375 C 101.820312 354.308594 104.558594 355.6875 107.332031 356.996094 C 110.105469 358.308594 112.910156 359.554688 115.746094 360.726562 C 118.582031 361.902344 121.445312 363.003906 124.332031 364.039062 C 127.222656 365.074219 130.136719 366.035156 133.070312 366.925781 C 136.007812 367.816406 138.964844 368.636719 141.941406 369.378906 C 144.917969 370.125 147.910156 370.796875 150.921875 371.398438 C 153.929688 371.996094 156.953125 372.519531 159.988281 372.96875 C 163.023438 373.421875 166.066406 373.796875 169.121094 374.097656 C 172.175781 374.398438 175.234375 374.625 178.300781 374.773438 C 181.363281 374.925781 184.429688 375 187.5 375 C 190.570312 375 193.636719 374.925781 196.699219 374.773438 C 199.765625 374.625 202.824219 374.398438 205.878906 374.097656 C 208.933594 373.796875 211.976562 373.421875 215.011719 372.96875 C 218.046875 372.519531 221.070312 371.996094 224.078125 371.398438 C 227.089844 370.796875 230.082031 370.125 233.058594 369.378906 C 236.035156 368.636719 238.992188 367.816406 241.929688 366.925781 C 244.863281 366.035156 247.777344 365.074219 250.667969 364.039062 C 253.554688 363.003906 256.417969 361.902344 259.253906 360.726562 C 262.089844 359.554688 264.894531 358.308594 267.667969 356.996094 C 270.441406 355.6875 273.179688 354.308594 275.886719 352.859375 C 278.59375 351.414062 281.261719 349.902344 283.894531 348.324219 C 286.527344 346.746094 289.117188 345.105469 291.667969 343.402344 C 294.222656 341.695312 296.730469 339.929688 299.195312 338.101562 C 301.660156 336.273438 304.078125 334.386719 306.449219 332.4375 C 308.820312 330.492188 311.144531 328.488281 313.417969 326.429688 C 315.691406 324.367188 317.914062 322.253906 320.082031 320.082031 C 322.253906 317.914062 324.367188 315.691406 326.429688 313.417969 C 328.488281 311.144531 330.492188 308.820312 332.441406 306.449219 C 334.386719 304.078125 336.273438 301.660156 338.101562 299.195312 C 339.929688 296.730469 341.695312 294.222656 343.402344 291.667969 C 345.105469 289.117188 346.746094 286.527344 348.324219 283.894531 C 349.902344 281.261719 351.414062 278.59375 352.859375 275.886719 C 354.308594 273.179688 355.6875 270.441406 356.996094 267.667969 C 358.308594 264.894531 359.554688 262.089844 360.726562 259.253906 C 361.902344 256.417969 363.003906 253.554688 364.039062 250.667969 C 365.074219 247.777344 366.035156 244.863281 366.925781 241.929688 C 367.816406 238.992188 368.636719 236.035156 369.378906 233.058594 C 370.125 230.082031 370.796875 227.089844 371.398438 224.078125 C 371.996094 221.070312 372.519531 218.046875 372.96875 215.011719 C 373.421875 211.976562 373.796875 208.933594 374.097656 205.878906 C 374.398438 202.824219 374.625 199.765625 374.773438 196.699219 C 374.925781 193.636719 375 190.570312 375 187.5 C 375 184.429688 374.925781 181.363281 374.773438 178.300781 C 374.621094 175.234375 374.394531 172.175781 374.09375 169.121094 C 373.792969 166.070312 373.417969 163.023438 372.96875 159.988281 C 372.515625 156.953125 371.992188 153.933594 371.394531 150.921875 C 370.792969 147.914062 370.121094 144.917969 369.375 141.941406 C 368.628906 138.96875 367.8125 136.011719 366.921875 133.074219 C 366.03125 130.136719 365.066406 127.226562 364.035156 124.335938 C 363 121.445312 361.894531 118.585938 360.722656 115.75 C 359.546875 112.914062 358.304688 110.113281 356.992188 107.335938 C 355.679688 104.5625 354.300781 101.824219 352.851562 99.117188 C 351.40625 96.410156 349.894531 93.742188 348.316406 91.109375 C 346.738281 88.480469 345.097656 85.886719 343.394531 83.335938 C 341.6875 80.785156 339.921875 78.277344 338.09375 75.8125 C 336.265625 73.347656 334.378906 70.929688 332.433594 68.558594 C 330.484375 66.1875 328.480469 63.863281 326.421875 61.589844 C 324.359375 59.316406 322.246094 57.09375 320.074219 54.925781 C 317.90625 52.753906 315.683594 50.640625 313.410156 48.578125 C 311.136719 46.519531 308.8125 44.515625 306.441406 42.566406 C 304.070312 40.621094 301.652344 38.734375 299.1875 36.90625 C 296.722656 35.078125 294.214844 33.3125 291.664062 31.605469 C 289.113281 29.902344 286.519531 28.261719 283.890625 26.683594 C 281.257812 25.105469 278.589844 23.59375 275.882812 22.148438 C 273.175781 20.699219 270.4375 19.320312 267.664062 18.007812 C 264.886719 16.695312 262.085938 15.453125 259.25 14.277344 C 256.414062 13.105469 253.550781 12 250.664062 10.964844 C 247.773438 9.933594 244.863281 8.96875 241.925781 8.078125 C 238.988281 7.1875 236.03125 6.371094 233.058594 5.625 C 230.082031 4.878906 227.085938 4.207031 224.078125 3.605469 C 221.066406 3.007812 218.046875 2.484375 215.011719 2.03125 C 211.976562 1.582031 208.929688 1.207031 205.878906 0.90625 C 202.824219 0.605469 199.765625 0.378906 196.699219 0.226562 C 193.636719 0.0742188 190.570312 0 187.5 0 Z M 270.234375 232.148438 L 204.960938 297.421875 C 204.390625 297.996094 203.792969 298.539062 203.167969 299.054688 C 202.542969 299.570312 201.894531 300.054688 201.222656 300.507812 C 200.550781 300.957031 199.859375 301.375 199.148438 301.757812 C 198.433594 302.140625 197.703125 302.488281 196.957031 302.796875 C 196.207031 303.109375 195.449219 303.382812 194.671875 303.617188 C 193.898438 303.855469 193.117188 304.050781 192.320312 304.210938 C 191.527344 304.371094 190.726562 304.488281 189.921875 304.566406 C 189.117188 304.648438 188.308594 304.6875 187.5 304.6875 C 186.691406 304.6875 185.882812 304.648438 185.078125 304.566406 C 184.273438 304.488281 183.472656 304.371094 182.679688 304.210938 C 181.882812 304.050781 181.101562 303.855469 180.328125 303.617188 C 179.550781 303.382812 178.792969 303.109375 178.042969 302.796875 C 177.296875 302.488281 176.566406 302.140625 175.851562 301.757812 C 175.140625 301.375 174.449219 300.957031 173.777344 300.507812 C 173.105469 300.054688 172.457031 299.570312 171.832031 299.054688 C 171.207031 298.539062 170.609375 297.996094 170.039062 297.421875 L 104.765625 232.148438 C 103.921875 231.285156 103.144531 230.367188 102.433594 229.390625 C 101.726562 228.414062 101.089844 227.390625 100.53125 226.320312 C 99.96875 225.253906 99.488281 224.148438 99.089844 223.007812 C 98.691406 221.871094 98.378906 220.707031 98.148438 219.523438 C 97.921875 218.339844 97.78125 217.140625 97.726562 215.9375 C 97.671875 214.730469 97.707031 213.527344 97.828125 212.328125 C 97.949219 211.125 98.160156 209.941406 98.457031 208.769531 C 98.75 207.601562 99.128906 206.457031 99.59375 205.34375 C 100.054688 204.226562 100.597656 203.152344 101.214844 202.117188 C 101.835938 201.082031 102.527344 200.097656 103.292969 199.164062 C 104.058594 198.226562 104.882812 197.355469 105.777344 196.539062 C 106.667969 195.726562 107.613281 194.984375 108.617188 194.308594 C 109.617188 193.632812 110.660156 193.035156 111.75 192.511719 C 112.835938 191.992188 113.957031 191.550781 115.109375 191.191406 C 116.261719 190.835938 117.433594 190.5625 118.628906 190.375 C 119.820312 190.1875 121.019531 190.089844 122.226562 190.078125 C 123.84375 190.070312 125.445312 190.21875 127.03125 190.53125 C 128.621094 190.839844 130.160156 191.304688 131.65625 191.925781 C 133.148438 192.542969 134.566406 193.304688 135.910156 194.207031 C 137.253906 195.109375 138.492188 196.136719 139.628906 197.285156 L 162.832031 220.429688 L 162.832031 94.980469 C 162.832031 94.171875 162.871094 93.367188 162.949219 92.5625 C 163.03125 91.757812 163.148438 90.960938 163.304688 90.167969 C 163.464844 89.375 163.660156 88.59375 163.894531 87.820312 C 164.128906 87.046875 164.402344 86.285156 164.710938 85.539062 C 165.019531 84.792969 165.363281 84.066406 165.746094 83.351562 C 166.125 82.640625 166.539062 81.949219 166.988281 81.277344 C 167.4375 80.605469 167.917969 79.957031 168.429688 79.332031 C 168.945312 78.707031 169.484375 78.109375 170.058594 77.539062 C 170.628906 76.964844 171.226562 76.425781 171.851562 75.910156 C 172.476562 75.398438 173.125 74.917969 173.796875 74.46875 C 174.46875 74.019531 175.160156 73.605469 175.871094 73.226562 C 176.585938 72.84375 177.3125 72.5 178.058594 72.191406 C 178.804688 71.882812 179.566406 71.609375 180.339844 71.375 C 181.113281 71.140625 181.894531 70.945312 182.6875 70.785156 C 183.480469 70.628906 184.277344 70.511719 185.082031 70.429688 C 185.886719 70.351562 186.691406 70.3125 187.5 70.3125 C 188.308594 70.3125 189.113281 70.351562 189.917969 70.429688 C 190.722656 70.511719 191.519531 70.628906 192.3125 70.785156 C 193.105469 70.945312 193.886719 71.140625 194.660156 71.375 C 195.433594 71.609375 196.195312 71.882812 196.941406 72.191406 C 197.6875 72.5 198.414062 72.84375 199.128906 73.226562 C 199.839844 73.605469 200.53125 74.019531 201.203125 74.46875 C 201.875 74.917969 202.523438 75.398438 203.148438 75.910156 C 203.773438 76.425781 204.371094 76.964844 204.941406 77.539062 C 205.515625 78.109375 206.054688 78.707031 206.570312 79.332031 C 207.082031 79.957031 207.5625 80.605469 208.011719 81.277344 C 208.460938 81.949219 208.875 82.640625 209.253906 83.351562 C 209.636719 84.066406 209.980469 84.792969 210.289062 85.539062 C 210.597656 86.285156 210.871094 87.046875 211.105469 87.820312 C 211.339844 88.59375 211.535156 89.375 211.695312 90.167969 C 211.851562 90.960938 211.96875 91.757812 212.050781 92.5625 C 212.128906 93.367188 212.167969 94.171875 212.167969 94.980469 L 212.167969 220.429688 L 235.371094 197.285156 C 236.507812 196.136719 237.746094 195.109375 239.089844 194.207031 C 240.433594 193.304688 241.851562 192.542969 243.34375 191.925781 C 244.839844 191.304688 246.378906 190.839844 247.964844 190.53125 C 249.554688 190.21875 251.15625 190.070312 252.773438 190.078125 C 253.980469 190.089844 255.179688 190.1875 256.371094 190.375 C 257.566406 190.5625 258.738281 190.835938 259.890625 191.191406 C 261.042969 191.550781 262.164062 191.992188 263.25 192.511719 C 264.339844 193.035156 265.382812 193.632812 266.382812 194.308594 C 267.386719 194.984375 268.332031 195.726562 269.222656 196.539062 C 270.117188 197.355469 270.941406 198.226562 271.707031 199.164062 C 272.472656 200.097656 273.164062 201.082031 273.785156 202.117188 C 274.402344 203.152344 274.945312 204.226562 275.40625 205.34375 C 275.871094 206.457031 276.25 207.601562 276.542969 208.769531 C 276.839844 209.941406 277.050781 211.125 277.171875 212.328125 C 277.292969 213.527344 277.328125 214.730469 277.273438 215.9375 C 277.21875 217.140625 277.078125 218.339844 276.851562 219.523438 C 276.621094 220.707031 276.308594 221.871094 275.910156 223.007812 C 275.511719 224.148438 275.03125 225.253906 274.46875 226.320312 C 273.910156 227.390625 273.273438 228.414062 272.566406 229.390625 C 271.855469 230.367188 271.078125 231.285156 270.234375 232.148438 Z M 270.234375 232.148438 " fill-opacity="1" fill-rule="nonzero"/></svg>